<svg width="250" height="40" viewBox="0 0 250 40" fill="none" xmlns="http://www.w3.org/2000/svg">
    <path d="M33.7812 30.5676C20.9346 33.4219 0.18544 30.4798 0.001144 22.6898C-0.183152 14.8997 21.9612 15.497 21.9612 15.497L33.7812 30.5676Z" fill="#FFC250"/>
    <path d="M6.24732 12.7085C15.2132 11.1722 22.0228 23.053 29.5566 35.4463C37.0904 47.8396 56.7084 52.7524 69.2436 42.33C81.7788 31.9077 87.084 13.6543 71.693 2.76634C56.302 -8.12157 46.6942 16.5974 33.4442 17.2769C20.1942 17.9563 20.0978 8.10733 6.24732 12.7085Z" fill="#FFD064"/>
    <circle cx="70.3944" cy="23.2438" r="3.9349" fill="#FFE19D"/>
    <circle cx="62.8526" cy="26.1949" r="2.95118" fill="#FFE19D"/>
    <circle cx="68.099" cy="30.1297" r="2.29536" fill="#FFE19D"/>
    <text x="90" y="30" font-family="Arial" font-size="30" fill="#F7931A">PotatoCoin</text>
  </svg>
  